<svg xmlns="http://www.w3.org/2000/svg" viewBox="0 0 29.02 37.87"><defs><style>.cls-1{fill:#fff;}.cls-1,.cls-2{stroke:#000;stroke-miterlimit:10;stroke-width:0.5px;}.cls-2{fill:none;}</style></defs><g id="Layer_2" data-name="Layer 2"><g id="Layer_1-2" data-name="Layer 1"><path class="cls-1" d="M27.31,36.26l-8.18,1A41,41,0,0,1,8.4,37.23l-7-1V.25H27.31Z"/><path class="cls-1" d="M28.76,36.12l-7.25,1.12a28.53,28.53,0,0,1-3.91.34c-2.47,0-5,0-7.43,0a26.4,26.4,0,0,1-4.6-.48l-5.32-1V29.87L11.94,31.1a23.32,23.32,0,0,0,4.87,0l11.7-1.23Z"/><line class="cls-1" x1="13.87" y1="0.25" x2="13.87" y2="37.61"/><polygon class="cls-1" points="12.36 37.51 12.02 31.16 13.76 29.5 15.72 31.16 15.19 37.61 12.36 37.51"/><circle class="cls-2" cx="13.82" cy="31.72" r="0.72"/><line class="cls-2" x1="14.84" y1="30.77" x2="12.89" y2="32.71"/></g></g></svg>