<?xml version="1.0" encoding="iso-8859-1"?>
<!-- Generator: Adobe Illustrator 16.0.4, SVG Export Plug-In . SVG Version: 6.00 Build 0)  -->
<!DOCTYPE svg PUBLIC "-//W3C//DTD SVG 1.1//EN" "http://www.w3.org/Graphics/SVG/1.1/DTD/svg11.dtd">
<svg version="1.1" id="Layer_1" xmlns="http://www.w3.org/2000/svg" xmlns:xlink="http://www.w3.org/1999/xlink" x="0px" y="0px"
	 width="80.076px" height="80.074px" viewBox="0 0 80.076 80.074" style="enable-background:new 0 0 80.076 80.074;"
	 xml:space="preserve">
<g>
	<path style="opacity:0.35;" d="M61.074,78.533c0.038-4.691,0.605-19.368,0.47-21.509c-0.151-2.362,0.854-15.726,0.603-17.534
		s-0.754-11.506-0.703-13.164c0.049-1.656-0.604-3.265-0.604-4.37c0-1.104,0.051-2.11-0.451-3.015
		c-0.504-0.905-0.805-5.125-0.906-6.23c-0.099-1.104-0.552-3.064-1.003-5.075c-0.453-2.008-2.261-3.164-20.601-4.018
		C19.973,2.784,13.16,6.633,13.16,6.633c-1.105,0.05-0.904,2.411-1.457,4.521c-0.266,1.016-0.006,1.761-0.15,2.713
		c-0.091,0.598-0.494,1.223-0.804,2.21c-0.804,2.562-1.708,6.13-1.307,9.345c0.402,3.217,0.754,10.25,0.703,17.736
		c-0.05,7.486,3.216,21.654,3.769,24.97c0.287,1.726,1.365,5.402,2.326,10.655l18.667-0.041c-0.595-5.525-1.076-10.115-1.148-12.322
		c-0.1-3.115,1.558-16.881,1.558-16.881s2.965,5.174,3.618,7.234c0.652,2.059,2.01,7.336,2.261,10.098
		c0.248,2.721,1.333,9.143,1.42,11.704L61.074,78.533z"/>
	<path style="fill:#FFFFFF;" d="M63.824,78.617c0.039-4.693,0.51-20.799,0.373-22.938c-0.15-2.362,0.854-15.726,0.604-17.534
		s-0.754-11.506-0.703-13.164c0.05-1.657-0.604-3.265-0.604-4.37c0-1.104,0.051-2.11-0.451-3.015
		c-0.504-0.904-0.805-5.125-0.905-6.229c-0.101-1.106-0.553-3.065-1.005-5.075s-2.261-3.165-20.6-4.02
		C22.626,1.438,15.814,5.286,15.814,5.286c-1.105,0.052-0.904,2.412-1.457,4.521c-0.266,1.017-0.006,1.762-0.15,2.714
		c-0.091,0.597-0.494,1.223-0.805,2.21c-0.803,2.562-1.708,6.13-1.306,9.346c0.402,3.215,0.753,10.249,0.703,17.735
		s3.216,21.652,3.769,24.97c0.287,1.726,1.212,6.707,2.172,11.96l18.792-0.043c-0.596-5.525-1.047-11.42-1.119-13.626
		c-0.1-3.114,1.558-16.881,1.558-16.881s2.965,5.175,3.618,7.234c0.652,2.06,2.009,7.335,2.261,10.099
		c0.248,2.721,1.513,10.529,1.6,13.092H63.824z"/>
	<path style="fill:none;stroke:#000000;stroke-width:0.624;stroke-miterlimit:10;" d="M45.404,78.662
		c-0.22-3.078-1.342-10.625-1.572-13.164c-0.252-2.763-1.608-8.039-2.262-10.099c-0.652-2.06-3.617-7.235-3.617-7.235
		s-1.658,13.768-1.558,16.882c0.069,2.154,0.499,8.272,1.073,13.704"/>
	<path style="fill:none;stroke:#000000;stroke-width:0.624;stroke-miterlimit:10;" d="M18.729,78.896
		c-0.944-5.166-1.896-10.447-2.18-12.143c-0.552-3.314-3.818-17.483-3.769-24.971c0.05-7.485-0.301-14.52-0.703-17.734
		c-0.401-3.215,0.503-6.782,1.308-9.345c0.309-0.987,0.713-1.613,0.804-2.211c0.143-0.952-0.115-1.696,0.15-2.713
		c0.553-2.109,0.201-4.082,1.381-4.547c0,0,6.888-3.823,24.795-2.989c18.338,0.854,20.146,2.01,20.6,4.02
		c0.451,2.01,0.903,3.969,1.004,5.074c0.102,1.105,0.402,5.326,0.904,6.23s0.453,1.909,0.453,3.014c0,1.105,0.652,2.714,0.602,4.371
		c-0.049,1.659,0.453,11.355,0.703,13.164c0.252,1.809-0.752,15.172-0.602,17.535c0.131,2.046-0.23,17.494-0.295,22.946"/>
	<path style="fill:none;stroke:#000000;stroke-width:0.624;stroke-miterlimit:10;" d="M14.223,10.534c0,0,1.071,1.307,3.231,1.657
		c2.16,0.352,7.812,1.106,9.621,1.356c1.81,0.252,4.253,0.841,5.804,0.805c1.205-0.028,14.018-0.401,16.529-0.452
		c2.513-0.05,11.757,0,12.562-3.617c0,0-0.755-3.766-0.849-3.781c-0.095-0.016-0.66,1.973-5.383,2.475
		c-4.723,0.503-15.741,0.904-17.643,1.005c-1.9,0.101-5.268,0-6.824-0.15c-1.558-0.15-8.742-1.206-10.25-1.356
		c-1.17-0.117-4.936-0.201-5.689-2.123c-0.149-0.381-0.025-0.829-0.058-0.806c-0.118,0.088-0.311,0.515-0.427,1.279
		c-0.117,0.764-0.319,2.174-0.424,2.607C14.318,9.869,14.223,10.534,14.223,10.534z"/>
	<path style="fill:#DADADA;stroke:#000000;stroke-width:0.624;stroke-miterlimit:10;" d="M17.404,7.922c0,0,6.33-2.814,19.745-2.361
		c13.415,0.452,16.932,0.854,21.855,2.512c0,0,1.406-0.665,1.897-1.382c0.489-0.716-0.868-2.713-9.232-3.429
		c-8.365-0.716-17.297-1.018-19.331-0.866C30.833,2.506,20.67,2.81,15.397,5.706C14.929,5.964,15.771,7.607,17.404,7.922z"/>
	<path style="fill:none;stroke:#000000;stroke-width:0.624;stroke-miterlimit:10;" d="M32.577,14.453c0,0-0.754,14.269,0.2,18.389
		c0.955,4.119,2.161,10.4,2.814,11.354c0.653,0.955,1.909,2.463,2.361,3.969"/>
	<path style="fill:none;stroke:#000000;stroke-width:0.624;stroke-miterlimit:10;" d="M36.043,16.062c0,0-0.049,12.343-0.15,14.055
		c-0.1,1.713-1.406,4.132-2.864,4.333"/>
	<path style="fill:none;stroke:#9D9D9C;stroke-width:0.6239;stroke-miterlimit:10;" d="M21.374,29.073
		c0,0-2.111,15.374-0.152,32.406c0.632,5.484,1.466,11.438,2.397,17.292"/>
	<path style="fill:none;stroke:#9D9D9C;stroke-width:0.6239;stroke-miterlimit:10;" d="M45.339,33.897
		c0,0,3.315,28.638,4.974,37.831c0.348,1.934,0.611,4.3,0.839,6.926"/>
	<polygon style="fill:none;stroke:#000000;stroke-width:0.624;stroke-miterlimit:10;" points="64.199,29.242 59.809,12.493 
		58.824,12.867 64.324,33.2 	"/>
	<rect style="fill:none;" width="80.076" height="80.074"/>
	<path style="opacity:0.35;" d="M32.559,14.721c0,0-3.391,0.422-4.016,0.328c-0.376-0.056-1.668-1.58-1.078-3.625
		C28.003,9.561,32.559,14.721,32.559,14.721z"/>
	<path style="fill:#FFFFFF;" d="M32.571,14.355c0,0-3.284-0.229-3.611-0.229s-1.281-1.079-1.256-2.285
		c0.024-1.206,1.273-2.027,2.554-2.009c1.149,0.017,2.547,0.112,3.299,0.138"/>
	<path style="fill:none;stroke:#000000;stroke-width:0.624;stroke-miterlimit:10;" d="M32.824,14.377c0,0-3.537-0.251-3.864-0.251
		s-1.281-1.079-1.256-2.285c0.024-1.206,1.364-2.045,2.581-1.999c1.148,0.043,2.52,0.103,3.271,0.128"/>
	<path style="fill:#FFFFFF;stroke:#000000;stroke-width:0.624;stroke-miterlimit:10;" d="M32.472,12.306
		c-0.014,0.095-0.101,0.159-0.196,0.146l-1.861-0.275c-0.095-0.015-0.159-0.103-0.146-0.197l0,0
		c0.014-0.095,0.102-0.159,0.197-0.146l1.861,0.275C32.421,12.123,32.486,12.211,32.472,12.306L32.472,12.306z"/>
	<circle style="fill:#FFFFFF;stroke:#000000;stroke-width:0.624;stroke-miterlimit:10;" cx="30.315" cy="11.933" r="1.027"/>
	<circle cx="30.132" cy="11.676" r="0.149"/>
	<circle cx="30.589" cy="11.749" r="0.149"/>
	<circle cx="30.521" cy="12.216" r="0.149"/>
	<circle cx="30.054" cy="12.143" r="0.149"/>
	<path style="opacity:0.35;" d="M25.656,9.117c0,0-0.221,4.06,0.059,5.041c0.391,1.375-1.953,0.562-2.109-0.219
		C23.483,13.332,24.592,8.472,25.656,9.117z"/>
	<path style="fill:#FFFFFF;stroke:#000000;stroke-width:0.624;stroke-miterlimit:10;" d="M24.346,8.906c0,0-0.159,2.151-0.285,3.07
		s-0.326,1.798-0.1,1.975c0.226,0.175,0.979,0.417,1.181,0.296s-0.252-0.121-0.201-1.452c0.05-1.331,0.442-3.746,0.442-3.746
		L24.346,8.906z"/>
	<path style="opacity:0.35;" d="M41.902,9.893c0,0-0.719,4.906-0.219,5.406c0.423,0.423,1.51-0.051,1.734-0.219
		c0.224-0.168-0.658-5.234-0.658-5.234L41.902,9.893z"/>
	<path style="fill:#FFFFFF;stroke:#000000;stroke-width:0.624;stroke-miterlimit:10;" d="M42.199,9.8v5.03c0,0,0.854,0.126,1.055,0
		s-0.123-4.978,0-5.03S42.199,9.8,42.199,9.8z"/>
	<path style="opacity:0.35;" d="M60.48,7.314c0,0,0.438,1.812,0.281,2.844c-0.133,0.875,0.345,2.466,0.625,2.438
		c0.281-0.027,0.691-0.843,0.691-0.843l-1.207-4.936L60.48,7.314z"/>
	<path style="fill:#FFFFFF;stroke:#000000;stroke-width:0.624;stroke-miterlimit:10;" d="M60.678,7.158
		c-0.026,0.027,1.027,2.369,1.178,4.816c0.005,0.077,0.477-0.36,0.477-0.36s0.078-1.183-0.174-2.665c-0.253-1.482-1-2.791-1-2.791
		S60.973,6.864,60.678,7.158z"/>
</g>
<g>
</g>
<g>
</g>
<g>
</g>
<g>
</g>
<g>
</g>
<g>
</g>
<g>
</g>
<g>
</g>
<g>
</g>
<g>
</g>
<g>
</g>
<g>
</g>
<g>
</g>
<g>
</g>
<g>
</g>
</svg>
