<svg xmlns="http://www.w3.org/2000/svg" viewBox="0 0 36.86 57.88"><defs><style>.cls-1,.cls-2{fill:#fff;}.cls-2,.cls-3,.cls-5{stroke:#231f20;}.cls-2,.cls-3,.cls-4,.cls-5{stroke-miterlimit:10;}.cls-2,.cls-3{stroke-width:0.5px;}.cls-3,.cls-4{fill:#231f20;}.cls-4{stroke:#fff;stroke-width:0.19px;}.cls-5{fill:none;stroke-width:0.75px;}</style></defs><g id="Layer_2" data-name="Layer 2"><g id="Layer_1-2" data-name="Layer 1"><path class="cls-1" d="M13.16,2s6.84-2.1,8.63.33-2.84,22-2.84,22-7-.71-6.19-2.88S13.16,2,13.16,2Z"/><path class="cls-2" d="M14.08.66s0,0,0,0c.1.59,3.23,19.51,4.44,20.09s1.09,26.72,1.09,26.78h0s-3.1,9-4.45,9.65-8.24.39-8.43.38h0c0-.37.33-28.14-.51-30.59S3.17,8.19,3.34,6.55,12.51,2.44,14.08.66Z"/><path class="cls-2" d="M21.09.68s-.24-.05-.24,0c-.2,2-2,19.62-3.4,22.2s-.58,31.9,4.78,34.68c0,0,8,.14,8.59-.54S29,33.17,29.46,29,32.87,7.9,32.7,6.2,22,2.14,21.09.68Z"/><path class="cls-2" d="M20.87,2.1s-2.51-.38-3.34-.38-3.33.38-3.33.38V.63S16.68.25,17.53.25s3.34.38,3.34.38Z"/><path class="cls-2" d="M6.71,25.85S4.24,42.74,6.28,47.21c0,0,1.54,3.7,1.28,4.08s-5.74,1.28-5.74,1.28S-2.56,18.3,3.33,6.41a.11.11,0,0,1,.21,0Z"/><path class="cls-3" d="M1.14,45.36l1,.21a16,16,0,0,1,.34,3.19c-.17.43-1,.56-1,.56Z"/><path class="cls-2" d="M29.76,25.49s3.16,16.78,1.3,21.32c0,0-1.38,3.76-1.11,4.14s5.79,1,5.79,1,3.33-34.29-3-45.94a.11.11,0,0,0-.21,0Z"/><path class="cls-3" d="M36.12,44.75l-1,.26a15.69,15.69,0,0,0-.21,3.2c.19.42,1,.51,1,.51Z"/><circle class="cls-2" cx="18.54" cy="30.02" r="1.09"/><circle class="cls-4" cx="18.54" cy="30.02" r="0.41"/><circle class="cls-2" cx="18.54" cy="35.45" r="1.09"/><circle class="cls-4" cx="18.54" cy="35.45" r="0.41"/><circle class="cls-2" cx="18.7" cy="41.7" r="1.09"/><circle class="cls-4" cx="18.7" cy="41.7" r="0.41"/><line class="cls-5" x1="25.39" y1="23.33" x2="25.14" y2="41.3"/><line class="cls-5" x1="10.03" y1="23.33" x2="10.28" y2="41.3"/></g></g></svg>