<svg xmlns="http://www.w3.org/2000/svg" viewBox="0 0 36.52 58.24"><defs><style>.cls-1,.cls-2{fill:#fff;}.cls-2,.cls-3,.cls-5{stroke:#231f20;}.cls-2,.cls-3,.cls-4,.cls-5{stroke-miterlimit:10;}.cls-2,.cls-3{stroke-width:0.5px;}.cls-3,.cls-4{fill:#231f20;}.cls-4{stroke:#fff;stroke-width:0.19px;}.cls-5{fill:none;stroke-width:0.75px;}</style></defs><g id="Layer_2" data-name="Layer 2"><g id="Layer_1-2" data-name="Layer 1"><path class="cls-1" d="M14.06,2.1s6.84-2.1,8.63.33-2.84,22-2.84,22-7-.7-6.19-2.87S14.06,2.1,14.06,2.1Z"/><path class="cls-2" d="M21.7,2.1s-2.51-.38-3.34-.38S15,2.1,15,2.1V.63S17.51.25,18.36.25,21.7.63,21.7.63Z"/><path class="cls-2" d="M6.12,58S8,36.92,7.26,29.58,3.31,6.92,3.31,6.92A43.18,43.18,0,0,0,9.18,4.24,41.19,41.19,0,0,0,14.54.92S15,16,18.27,22.84s2.27,33.1,2.27,33.1l.12,1.68Z"/><path class="cls-2" d="M22,1s-5.41,38.08-6.81,39.61S14.8,58,14.8,58H30.63s-2.05-25.78-1.41-28.4,3.7-22.53,3.7-22.53-4.08-2-6.25-2.81A16.14,16.14,0,0,1,22,1Z"/><path class="cls-2" d="M6.63,26.2s-2,17,0,21.44c0,0,1.53,3.71,1.27,4.09S2.16,53,2.16,53s-5-34.35,1.15-46Z"/><path class="cls-3" d="M1.49,45.79l1,.22A15.88,15.88,0,0,1,2.8,49.2c-.17.42-1,.55-1,.55Z"/><path class="cls-2" d="M29.9,26.84s2,17,0,21.44c0,0-1.54,3.7-1.28,4.09s5.74,1.27,5.74,1.27,5-34.34-1.15-45.95Z"/><path class="cls-3" d="M35,46.43l-1,.21a16,16,0,0,0-.34,3.2c.17.42,1,.55,1,.55Z"/><circle class="cls-2" cx="22.69" cy="32.42" r="1.09"/><circle class="cls-4" cx="22.69" cy="32.42" r="0.41"/><circle class="cls-2" cx="13.66" cy="32.42" r="1.09"/><circle class="cls-4" cx="13.66" cy="32.42" r="0.41"/><circle class="cls-2" cx="16.31" cy="41.71" r="1.09"/><circle class="cls-4" cx="16.31" cy="41.71" r="0.41"/><circle class="cls-2" cx="20.93" cy="41.71" r="1.09"/><circle class="cls-4" cx="20.93" cy="41.71" r="0.41"/><line class="cls-5" x1="25.94" y1="23.74" x2="25.69" y2="41.71"/><line class="cls-5" x1="10.58" y1="23.74" x2="10.83" y2="41.71"/></g></g></svg>