<svg xmlns="http://www.w3.org/2000/svg" viewBox="0 0 36.45 58.24"><defs><style>.cls-1,.cls-2{fill:#fff;}.cls-2,.cls-3,.cls-5{stroke:#231f20;}.cls-2,.cls-3,.cls-4,.cls-5{stroke-miterlimit:10;}.cls-2,.cls-3{stroke-width:0.5px;}.cls-3,.cls-4{fill:#231f20;}.cls-4{stroke:#fff;stroke-width:0.19px;}.cls-5{fill:none;stroke-width:0.75px;}</style></defs><g id="Layer_2" data-name="Layer 2"><g id="Layer_1-2" data-name="Layer 1"><path class="cls-1" d="M14.16,2.1S21,0,22.78,2.43s-2.84,22-2.84,22-7-.7-6.19-2.87S14.16,2.1,14.16,2.1Z"/><path class="cls-2" d="M21.79,2.1s-2.51-.38-3.33-.38-3.34.38-3.34.38V.63S17.61.25,18.46.25s3.33.38,3.33.38Z"/><path class="cls-2" d="M6.21,58s1.91-21.06,1.15-28.4c-.83-7.93-.89-7.93-4-22.66A42.53,42.53,0,0,0,9.27,4.24,40.29,40.29,0,0,0,14.63.92S15.06,16,18.36,22.84s2.27,33.1,2.27,33.1l.13,1.68Z"/><path class="cls-2" d="M22.12,1s-5.4,38.08-6.81,39.61S14.89,58,14.89,58H30.72s-2-25.78-1.41-28.4S33,7.05,33,7.05s-4.09-2-6.26-2.81A16.14,16.14,0,0,1,22.12,1Z"/><path class="cls-2" d="M7.14,26.28s-2.46,16.9-.42,21.36c0,0,1.53,3.71,1.27,4.09S2.25,53,2.25,53s-5-34.07.86-46a.11.11,0,0,1,.21,0Z"/><path class="cls-3" d="M1.58,45.79l1,.22A15.88,15.88,0,0,1,2.9,49.2c-.17.42-1,.55-1,.55Z"/><path class="cls-2" d="M30,26.84s2,17,0,21.44c0,0-1.53,3.7-1.28,4.09s5.75,1.27,5.75,1.27S39.12,19,33.19,7.15a.09.09,0,0,0-.17,0Z"/><path class="cls-3" d="M35.13,46.43l-1,.21a16,16,0,0,0-.34,3.2c.17.42,1,.55,1,.55Z"/><circle class="cls-2" cx="21.43" cy="46.69" r="1.09"/><circle class="cls-4" cx="21.43" cy="46.69" r="0.41"/><circle class="cls-2" cx="16.4" cy="46.88" r="1.09"/><circle class="cls-4" cx="16.4" cy="46.88" r="0.41"/><circle class="cls-2" cx="16.4" cy="41.71" r="1.09"/><circle class="cls-4" cx="16.4" cy="41.71" r="0.41"/><circle class="cls-2" cx="21.02" cy="41.71" r="1.09"/><circle class="cls-4" cx="21.02" cy="41.71" r="0.41"/><line class="cls-5" x1="26.04" y1="23.74" x2="25.78" y2="41.71"/><line class="cls-5" x1="10.67" y1="23.74" x2="10.93" y2="41.71"/></g></g></svg>