<svg xmlns="http://www.w3.org/2000/svg" viewBox="0 0 37.46 57.88"><defs><style>.cls-1,.cls-2{fill:#fff;}.cls-2,.cls-3,.cls-5{stroke:#231f20;}.cls-2,.cls-3,.cls-4,.cls-5{stroke-miterlimit:10;}.cls-2,.cls-3{stroke-width:0.5px;}.cls-3,.cls-4{fill:#231f20;}.cls-4{stroke:#fff;stroke-width:0.19px;}.cls-5{fill:none;stroke-width:0.75px;}</style></defs><g id="Layer_2" data-name="Layer 2"><g id="Layer_1-2" data-name="Layer 1"><path class="cls-1" d="M13.6,2s6.83-2.1,8.62.33-2.84,22-2.84,22-7-.71-6.19-2.88S13.6,2,13.6,2Z"/><path class="cls-2" d="M14.51.66s0,0,0,0c.1.59,3.22,19.51,4.43,20.09s1.09,26.72,1.09,26.78h0s-3.09,9-4.45,9.65-8.24.39-8.42.38h0c0-.37.34-28.14-.51-30.59S3.6,8.19,3.77,6.55,12.94,2.44,14.51.66Z"/><path class="cls-2" d="M21.53.68s-.24-.05-.25,0c-.2,2-2,19.62-3.4,22.2s-.58,31.9,4.78,34.68c0,0,8,.14,8.6-.54S29.47,33.17,29.9,29,33.3,7.9,33.13,6.2,22.43,2.14,21.53.68Z"/><path class="cls-2" d="M21.3,2.1S18.79,1.72,18,1.72s-3.34.38-3.34.38V.63S17.12.25,18,.25,21.3.63,21.3.63Z"/><path class="cls-2" d="M7.14,25.85S4.68,42.74,6.72,47.21c0,0,1.53,3.7,1.27,4.08s-5.74,1.28-5.74,1.28-5-34.06.86-46a.11.11,0,0,1,.21,0Z"/><path class="cls-3" d="M1.58,45.36l1,.21a16,16,0,0,1,.34,3.19c-.17.43-1,.56-1,.56Z"/><path class="cls-2" d="M30.19,25.49s3.16,16.78,1.3,21.32c0,0-1.38,3.76-1.11,4.14s5.79,1,5.79,1S39.81,17.75,33.44,6.1a.11.11,0,0,0-.21.05Z"/><path class="cls-3" d="M36.55,44.75l-1,.26a16.44,16.44,0,0,0-.21,3.2c.19.42,1,.51,1,.51Z"/><circle class="cls-2" cx="18.96" cy="29.56" r="1.09"/><circle class="cls-4" cx="18.96" cy="29.56" r="0.41"/><circle class="cls-2" cx="18.96" cy="34.99" r="1.09"/><circle class="cls-4" cx="18.96" cy="34.99" r="0.41"/><circle class="cls-2" cx="18.96" cy="23.73" r="1.09"/><circle class="cls-4" cx="18.96" cy="23.73" r="0.41"/><circle class="cls-2" cx="19.13" cy="41.24" r="1.09"/><circle class="cls-4" cx="19.13" cy="41.24" r="0.41"/><line class="cls-5" x1="26.15" y1="22.87" x2="25.89" y2="40.83"/><line class="cls-5" x1="10.78" y1="22.87" x2="11.04" y2="40.83"/></g></g></svg>