<svg xmlns="http://www.w3.org/2000/svg" viewBox="0 0 29.87 27.8"><defs><style>.cls-1{fill:#fff;}.cls-1,.cls-2{stroke:#000;stroke-miterlimit:10;stroke-width:0.5px;}.cls-2{fill:none;}</style></defs><g id="Layer_2" data-name="Layer 2"><g id="Layer_1-2" data-name="Layer 1"><path class="cls-1" d="M29.61,27.55H.25V.25h24c3,0,4.93,2.64,4.93,5.6Z"/><path class="cls-2" d="M.34,12.29s20.31-3.83,29,1.37"/><path class="cls-2" d="M4.35,3.51h9.35a.65.65,0,0,1,.65.65V8.47a.65.65,0,0,1-.65.65H4.35a0,0,0,0,1,0,0V3.51A0,0,0,0,1,4.35,3.51Z"/><path class="cls-2" d="M17.12,3.51h9.4a0,0,0,0,1,0,0V9.12a0,0,0,0,1,0,0h-9.4a.6.6,0,0,1-.6-.6V4.11A.6.6,0,0,1,17.12,3.51Z"/><rect class="cls-2" x="12.35" y="2.7" width="6.43" height="6.89" rx="1.17"/></g></g></svg>