<svg xmlns="http://www.w3.org/2000/svg" viewBox="0 0 30.31 28.18"><defs><style>.cls-1{fill:#fff;stroke:#000;stroke-miterlimit:10;stroke-width:0.5px;}</style></defs><g id="Layer_2" data-name="Layer 2"><g id="Layer_1-2" data-name="Layer 1"><polygon class="cls-1" points="0.25 4.69 0.25 17.14 0.25 27.93 30.06 27.93 30.06 0.29 0.25 4.69"/><line class="cls-1" x1="30.06" y1="10.95" x2="0.25" y2="17.14"/><path class="cls-1" d="M12.49,16.82l-.8.2a1.64,1.64,0,0,1-2-1.32L8.29,4.47A1.83,1.83,0,0,1,9.7,2.38l.85-.19a1.84,1.84,0,0,1,2.23,1.57l1,11.28A1.62,1.62,0,0,1,12.49,16.82Z"/><path class="cls-1" d="M16.64,16.19l-.8.19a1.63,1.63,0,0,1-2-1.32L12.44,3.84a1.85,1.85,0,0,1,1.41-2.1l.85-.19a1.83,1.83,0,0,1,2.23,1.57l.95,11.28A1.64,1.64,0,0,1,16.64,16.19Z"/></g></g></svg>