<svg xmlns="http://www.w3.org/2000/svg" xmlns:xlink="http://www.w3.org/1999/xlink" viewBox="0 0 40.84 41.62"><defs><style>.cls-1,.cls-11,.cls-12,.cls-2,.cls-3,.cls-4,.cls-5,.cls-6,.cls-7,.cls-8,.cls-9{stroke:#231f20;stroke-miterlimit:10;}.cls-1,.cls-2{stroke-width:0.5px;}.cls-1{fill:url(#linear-gradient);}.cls-2,.cls-4{fill:none;}.cls-3{fill:#fff;}.cls-3,.cls-4,.cls-6,.cls-8,.cls-9{stroke-width:0.11px;}.cls-5,.cls-7{stroke-width:0.12px;}.cls-5{fill:url(#linear-gradient-2);}.cls-6{fill:url(#linear-gradient-3);}.cls-7{fill:url(#linear-gradient-4);}.cls-8{fill:url(#linear-gradient-5);}.cls-9{fill:url(#linear-gradient-6);}.cls-10,.cls-11,.cls-12{fill:#231f20;}.cls-11{stroke-width:0.11px;}.cls-12{stroke-width:0.15px;}</style><linearGradient id="linear-gradient" x1="0.25" y1="22.54" x2="40.59" y2="22.54" gradientUnits="userSpaceOnUse"><stop offset="0" stop-color="#fff"/><stop offset="1" stop-color="#b4b4b5"/></linearGradient><linearGradient id="linear-gradient-2" x1="-565.91" y1="6.58" x2="-566.06" y2="22.92" gradientTransform="matrix(-1, 0, 0, 1, -548.66, 0)" xlink:href="#linear-gradient"/><linearGradient id="linear-gradient-3" x1="-565.97" y1="8.55" x2="-566.07" y2="19.18" gradientTransform="matrix(-1, 0, 0, 1, -548.66, 0)" xlink:href="#linear-gradient"/><linearGradient id="linear-gradient-4" x1="21.47" y1="7.07" x2="21.33" y2="22.95" xlink:href="#linear-gradient"/><linearGradient id="linear-gradient-5" x1="21.43" y1="7.48" x2="21.3" y2="21.47" xlink:href="#linear-gradient"/><linearGradient id="linear-gradient-6" x1="19.83" y1="-3.39" x2="19.32" y2="52.18" xlink:href="#linear-gradient"/></defs><g id="Layer_2" data-name="Layer 2"><g id="Layer_1-2" data-name="Layer 1"><path class="cls-1" d="M40.59,41.37H.25V13.28s7.34-2.68,9.66-3.7c2.73-1.2,10.51-5.87,10.51-5.87S27.3,8,29.65,9.07c2.69,1.18,10.94,4.21,10.94,4.21Z"/><path class="cls-2" d="M.25,15.07s7.34-2.68,9.66-3.7c2.73-1.21,10.51-5.88,10.51-5.88s6.88,4.33,9.23,5.37c2.69,1.18,10.94,4.21,10.94,4.21"/><line class="cls-2" x1="17.78" y1="41.37" x2="17.78" y2="10"/><line class="cls-2" x1="21.16" y1="41.37" x2="21.16" y2="10"/><path class="cls-3" d="M12.35,2.13a19.68,19.68,0,0,1,14.49-.42s1.91,1.16.34,3.39S20,9,19.79,9s-7-1.74-7-1.74L12.16,3Z"/><path class="cls-4" d="M12.75,3.21s1.36-1.51,7.05-1.5c6.63,0,7,1.3,7,1.3"/><path class="cls-4" d="M13.09,6.78s1.36-1.51,7.05-1.5c6.63,0,7,1.3,7,1.3"/><path class="cls-4" d="M13.09,7.22s1.36-1.51,7.05-1.51c6.63,0,7,1.3,7,1.3"/><path class="cls-5" d="M18.42,7.59s2.57.88,3.29,2.91a1.57,1.57,0,0,1,.08.52v2s-5.67,1-9-1.15"/><path class="cls-6" d="M20.14,9.27s.53-.58,1.26,1.23a1.17,1.17,0,0,1,.08.46V12.7s-5,.77-8.28-1.15"/><path class="cls-7" d="M20.27,8.05S17.73,8.77,17,10.8a1.57,1.57,0,0,0-.08.52v2s5.68,1,9-1.15"/><path class="cls-8" d="M20.58,8.34S18.05,9,17.33,10.8a1.17,1.17,0,0,0-.08.46V13s4.95.77,8.28-1.15"/><path class="cls-9" d="M19.4,8s-3.35,8.53-5.07,10.79a55.28,55.28,0,0,1-4-9.14S11.51,4.77,12,2.1c0,0,2.07-2.18,8-2s7,.82,7.63,2c.47.84,1.55,7.33,1.55,7.33-.18,1.34-2.95,7.35-2.95,7.35L25,19.27l-1-2.78-3.75-8.4s4.61-2.16,7-5.89c0,0-7.62-3.29-14.81.18C12.41,2.38,12.61,4.09,19.4,8Z"/><line class="cls-4" x1="25.18" y1="17.41" x2="20.81" y2="7.79"/><path class="cls-4" d="M18.56,7.49s-3.64,9.11-3.81,9.81S10.46,9,10.46,9"/><circle class="cls-10" cx="19.71" cy="11.11" r="0.53"/><line class="cls-11" x1="18.75" y1="11.11" x2="20.67" y2="11.11"/><line class="cls-4" x1="25.18" y1="17.41" x2="28.99" y2="8.64"/><circle class="cls-10" cx="19.71" cy="21.48" r="0.71"/><line class="cls-12" x1="19.71" y1="22.76" x2="19.71" y2="20.19"/><circle class="cls-10" cx="19.71" cy="34.47" r="0.71"/><line class="cls-12" x1="19.71" y1="35.75" x2="19.71" y2="33.18"/></g></g></svg>