<svg xmlns="http://www.w3.org/2000/svg" viewBox="0 0 34.38 35.97"><defs><style>.cls-1{fill:#fff;}.cls-1,.cls-2,.cls-3,.cls-4{stroke:#000;stroke-miterlimit:10;}.cls-1,.cls-2,.cls-3{stroke-width:0.5px;}.cls-3,.cls-4{fill:none;}.cls-4{stroke-width:0.25px;}</style></defs><g id="Layer_2" data-name="Layer 2"><g id="Layer_1-2" data-name="Layer 1"><path class="cls-1" d="M21.12,4.7c.75,4.28,1.38,9,1.79,14,.49,6.16-5.61,11.86-5.78,17H3c0-1.59-.81-5.22-1.42-7.94A46.2,46.2,0,0,1,.28,19.7c-.23-4.08,1-7.41,2-15.26Z"/><path class="cls-1" d="M31.87,4.7c.76,4.28,1.39,9,1.79,14a148.52,148.52,0,0,1,.38,17H18.53a26.57,26.57,0,0,0-.63-6.64c-.94-4.16-2.76-6.66-3.45-8.49C13.16,17.19,12,12.29,13,4.44Z"/><polygon class="cls-2" points="10.36 11.92 1.08 11.92 1.22 11.53 10.36 11.53 10.36 11.92"/><polygon class="cls-3" points="10.4 13.97 4.93 15.24 1.05 13.97 1.08 11.92 10.36 11.92 10.4 13.97"/><rect class="cls-2" x="18.26" y="11.53" width="11.51" height="0.39"/><polygon class="cls-3" points="29.77 14.25 24.01 15.52 18.26 14.25 18.26 11.92 29.77 11.92 29.77 14.25"/><rect class="cls-1" x="2.07" y="0.25" width="29.81" height="4.25"/><circle class="cls-4" cx="23.82" cy="13.95" r="0.61"/><line class="cls-4" x1="23.02" y1="13.08" x2="24.67" y2="14.73"/><circle class="cls-4" cx="5.09" cy="13.76" r="0.61"/><line class="cls-4" x1="4.29" y1="12.89" x2="5.93" y2="14.54"/></g></g></svg>