<svg xmlns="http://www.w3.org/2000/svg" viewBox="0 0 34.38 35.97"><defs><style>.cls-1{fill:#fff;}.cls-1,.cls-2{stroke:#000;stroke-miterlimit:10;stroke-width:0.5px;}.cls-2{fill:none;}</style></defs><g id="Layer_2" data-name="Layer 2"><g id="Layer_1-2" data-name="Layer 1"><path class="cls-1" d="M21.12,4.7c.75,4.28,1.38,9,1.79,14,.49,6.16-5.61,11.86-5.78,17H3c0-1.59-.81-5.22-1.42-7.94A46.2,46.2,0,0,1,.28,19.7c-.23-4.08,1-7.41,2-15.26Z"/><path class="cls-1" d="M31.87,4.7c.76,4.28,1.39,9,1.79,14a148.52,148.52,0,0,1,.38,17H18.53a26.57,26.57,0,0,0-.63-6.64c-.94-4.16-2.76-6.66-3.45-8.49C13.16,17.19,12,12.29,13,4.44Z"/><rect class="cls-2" x="17.58" y="11.27" width="12.64" height="1.66" rx="0.66"/><rect class="cls-2" x="1.01" y="11.27" width="9.35" height="1.66" rx="0.66"/><rect class="cls-1" x="2.07" y="0.25" width="29.81" height="4.25"/></g></g></svg>