<svg xmlns="http://www.w3.org/2000/svg" viewBox="0 0 36.77 34.78"><defs><style>.cls-1,.cls-2{fill:#fff;}.cls-1,.cls-2,.cls-3{stroke:#231f20;stroke-miterlimit:10;}.cls-1{stroke-width:0.25px;}.cls-2,.cls-3{stroke-width:0.5px;}.cls-3{fill:none;}</style></defs><g id="Layer_2" data-name="Layer 2"><g id="Layer_1-2" data-name="Layer 1"><polygon class="cls-1" points="14.34 32.38 21.55 32.38 20.47 22.6 14.81 22.6 14.34 32.38"/><path class="cls-2" d="M17.24.26S18.92,22,18.45,23.11s-.58,10.15-7.15,11.17-7.85-1.41-7.85-1.41S5,2.75,4.47.57Z"/><path class="cls-2" d="M19.09.57a40.27,40.27,0,0,0-2.37,5.69c-.19,1.27.32,22.85,4,25.91s11.94,1.28,11.94,1.28L32,.26H19.21Z"/><path class="cls-2" d="M32.62,14.3h-6.7l-.33,14.11A2.42,2.42,0,0,0,28,30.89h4.6Z"/><path class="cls-3" d="M3.45,14.3h6.7l.33,14.11a2.43,2.43,0,0,1-2.43,2.48H3.45Z"/><path class="cls-2" d="M36.72,27.09,31.19,26S34.51,5.41,33.41.26"/><line class="cls-3" x1="26.68" y1="0.26" x2="27" y2="14.3"/><path class="cls-3" d="M9.13,14.3S9.7.52,9.45.26"/><path class="cls-2" d="M3.07.26S3,22.79,5.11,25.72l-5,1.37"/></g></g></svg>