<svg xmlns="http://www.w3.org/2000/svg" viewBox="0 0 37.16 34.78"><defs><style>.cls-1,.cls-2{fill:#fff;stroke:#231f20;stroke-miterlimit:10;}.cls-1{stroke-width:0.5px;}.cls-2{stroke-width:0.51px;}</style></defs><g id="Layer_2" data-name="Layer 2"><g id="Layer_1-2" data-name="Layer 1"><polygon class="cls-1" points="13.67 33.56 23.02 33.56 21.62 23.77 14.28 23.77 13.67 33.56"/><path class="cls-1" d="M17.75.26S19.56,22,19.05,23.11s-.62,10.15-7.68,11.17-8.44-1.41-8.44-1.41S4.57,2.74,4,.57Z"/><path class="cls-1" d="M18.57.77s-2.31,4.4-2.51,5.68.34,22.85,4.21,25.92S33,33.64,33,33.64L32.35.45H18.71Z"/><path class="cls-1" d="M37.12,27.75,31.59,26.7S34.91,6.08,33.8.92"/><path class="cls-1" d="M25.59,13.92,32.31,16v4l-5.45-1.37a2.23,2.23,0,0,1-1.7-2A8.72,8.72,0,0,1,25.59,13.92Z"/><path class="cls-1" d="M10.43,13.92,3.71,16v4l5.45-1.37a2.23,2.23,0,0,0,1.7-2A8.41,8.41,0,0,0,10.43,13.92Z"/><line class="cls-2" x1="27.2" y1="0.54" x2="27.37" y2="14.47"/><path class="cls-1" d="M3.07.71S3,23.24,5.11,26.17l-5,1.37"/><line class="cls-2" x1="8.86" y1="0.54" x2="8.86" y2="14.47"/></g></g></svg>