<svg xmlns="http://www.w3.org/2000/svg" viewBox="0 0 37.87 34.78"><defs><style>.cls-1{fill:#fff;stroke-width:0.5px;}.cls-1,.cls-2{stroke:#231f20;stroke-miterlimit:10;}.cls-2{fill:none;stroke-width:0.77px;}.cls-3{fill:#231f20;}</style></defs><g id="Layer_2" data-name="Layer 2"><g id="Layer_1-2" data-name="Layer 1"><polygon class="cls-1" points="14.02 33.05 23.37 33.05 21.97 23.26 14.63 23.26 14.02 33.05"/><path class="cls-1" d="M17.41.26S19.22,22,18.71,23.11,18.09,33.26,11,34.28s-8.44-1.41-8.44-1.41S4.23,2.74,3.68.57Z"/><path class="cls-1" d="M19.39.77s-2.31,4.4-2.51,5.68.34,22.85,4.21,25.92,12.69,1.27,12.69,1.27L33.17.45H19.53Z"/><path class="cls-1" d="M37.82,27.75,32.29,26.7S35.61,6.08,34.5.92"/><path class="cls-2" d="M9.15.92s.51,9.84,0,12.42"/><path class="cls-2" d="M27.56.92s-.51,9.84,0,12.42"/><rect class="cls-3" x="3.19" y="13.34" width="7.15" height="1.56"/><rect class="cls-3" x="26.21" y="13.34" width="7.15" height="1.56"/><path class="cls-1" d="M3.07.71S3,23.24,5.11,26.17l-5,1.37"/></g></g></svg>