<svg xmlns="http://www.w3.org/2000/svg" viewBox="0 0 38.68 34.78"><defs><style>.cls-1,.cls-3,.cls-5{fill:#fff;}.cls-1,.cls-2,.cls-3,.cls-4,.cls-5,.cls-6{stroke:#231f20;stroke-miterlimit:10;}.cls-1,.cls-6{stroke-width:0.5px;}.cls-2{fill:#888a8c;}.cls-2,.cls-3{stroke-width:0.23px;}.cls-4{fill:#48484a;}.cls-4,.cls-5{stroke-width:0.15px;}.cls-6{fill:none;}</style></defs><g id="Layer_2" data-name="Layer 2"><g id="Layer_1-2" data-name="Layer 1"><polygon class="cls-1" points="13.06 33.14 22.41 33.14 21 23.35 13.66 23.35 13.06 33.14"/><path class="cls-1" d="M17.41.26S19.22,22,18.71,23.11,18.09,33.26,11,34.28s-8.44-1.41-8.44-1.41S4.23,2.74,3.68.57Z"/><path class="cls-1" d="M20.2.86s-2.31,4.4-2.51,5.68S18,29.39,21.9,32.45s12.69,1.28,12.69,1.28L34,.54H20.34Z"/><rect class="cls-2" x="27.1" y="15.29" width="7.49" height="1.32"/><rect class="cls-3" x="27.1" y="16.73" width="7.49" height="1.32"/><rect class="cls-2" x="3.1" y="15.29" width="7.49" height="1.32" transform="translate(13.69 31.89) rotate(-180)"/><rect class="cls-3" x="3.1" y="16.73" width="7.49" height="1.32" transform="translate(13.69 34.78) rotate(-180)"/><path class="cls-1" d="M38.63,27.84,33.1,26.79S36.42,6.16,35.31,1"/><path class="cls-1" d="M3.07.26S3,22.79,5.11,25.72l-5,1.37"/><rect class="cls-4" x="3.51" y="10.79" width="3.51" height="1.26" transform="translate(10.54 22.83) rotate(-180)"/><rect class="cls-5" x="3.51" y="12.17" width="3.51" height="1.26" transform="translate(10.54 25.59) rotate(-180)"/><path class="cls-6" d="M27.1,1s-.26,9.32.83,10.79"/><path class="cls-6" d="M10.1,1s.26,9.32-.83,10.79"/></g></g></svg>