<svg xmlns="http://www.w3.org/2000/svg" viewBox="0 0 36.7 34.39"><defs><style>.cls-1,.cls-2,.cls-3,.cls-4{fill:#fff;stroke:#231f20;stroke-miterlimit:10;}.cls-1{stroke-width:0.5px;}.cls-2{stroke-width:0.51px;}.cls-3{stroke-width:0.47px;}.cls-4{stroke-width:0.45px;}</style></defs><g id="Layer_2" data-name="Layer 2"><g id="Layer_1-2" data-name="Layer 1"><path class="cls-1" d="M17.67.26s1.71,21.45,1.22,22.55-.58,10-7.23,11-7.94-1.39-7.94-1.39S5.27,2.71,4.75.57Z"/><path class="cls-1" d="M3.07.18S3,22.71,5.11,25.64L.07,27"/><path class="cls-1" d="M19.24.75a39.83,39.83,0,0,0-2.32,5.68c-.19,1.28.31,22.85,3.89,25.91s11.73,1.28,11.73,1.28L32,.43H19.36Z"/><path class="cls-1" d="M36.65,27.55,31.12,26.5S34.44,5.88,33.34.72"/><path class="cls-2" d="M26,13.43h6.25v3.73h-5.1s-1.11.23-1.41-1.39V13.22h6.77"/><path class="cls-2" d="M10.23,13.43H4v3.73H9.09s1.1.23,1.4-1.39V13.22H3.72"/><line class="cls-3" x1="9.29" y1="0.37" x2="9.29" y2="13.43"/><line class="cls-4" x1="27.15" y1="0.59" x2="27.57" y2="13.22"/></g></g></svg>