<svg xmlns="http://www.w3.org/2000/svg" viewBox="0 0 36.32 34.33"><defs><style>.cls-1,.cls-2,.cls-3{fill:#fff;stroke:#231f20;stroke-miterlimit:10;}.cls-1{stroke-width:0.5px;}.cls-2{stroke-width:0.51px;}.cls-3{stroke-width:0.45px;}</style></defs><g id="Layer_2" data-name="Layer 2"><g id="Layer_1-2" data-name="Layer 1"><polygon class="cls-1" points="12.44 33.11 21.79 33.11 20.39 23.32 13.05 23.32 12.44 33.11"/><path class="cls-1" d="M16.87.26s1.71,21.45,1.23,22.55-.58,10-7.23,11-7.94-1.39-7.94-1.39S4.48,2.71,4,.57Z"/><path class="cls-1" d="M3.07.26S3,22.79,5.11,25.72l-5,1.37"/><path class="cls-1" d="M18.85.63a40.33,40.33,0,0,0-2.32,5.68c-.19,1.28.31,22.85,3.89,25.92S32.15,33.5,32.15,33.5L31.59.31H19Z"/><path class="cls-2" d="M25.9,13.31h6.25V17h-5.1s-1.11.23-1.41-1.39V13.1h6.77"/><path class="cls-1" d="M36.27,27.43l-5.53-1.05S34.06,5.76,33,.6"/><path class="cls-2" d="M10.11,13.31H3.85V17H9s1.1.23,1.4-1.39V13.1H3.59"/><line class="cls-3" x1="9.16" y1="0.47" x2="9.16" y2="12.67"/><path class="cls-3" d="M10.9,7.42H5.53v2.4a1.11,1.11,0,0,0,1.15,1H9.92s.95.21,1.2-1.28V7.22H5.3"/><line class="cls-3" x1="26.7" y1="0.47" x2="27.12" y2="13.1"/></g></g></svg>