<svg xmlns="http://www.w3.org/2000/svg" viewBox="0 0 36.94 34.78"><defs><style>.cls-1{fill:#fff;stroke:#231f20;stroke-miterlimit:10;stroke-width:0.5px;}</style></defs><g id="Layer_2" data-name="Layer 2"><g id="Layer_1-2" data-name="Layer 1"><polygon class="cls-1" points="12.33 33.05 21.68 33.05 20.27 23.26 12.94 23.26 12.33 33.05"/><path class="cls-1" d="M17.75.26S19.56,22,19.05,23.11s-.62,10.15-7.68,11.17-8.44-1.41-8.44-1.41S4.57,2.74,4,.57Z"/><path class="cls-1" d="M18.35.77S16,5.17,15.84,6.45,16.18,29.3,20,32.37s12.7,1.27,12.7,1.27L32.12.45H18.48Z"/><line class="cls-1" x1="27.29" y1="0.92" x2="27.29" y2="14.12"/><line class="cls-1" x1="9.37" y1="0.92" x2="9.37" y2="14.12"/><path class="cls-1" d="M32.74,16.05a50.35,50.35,0,0,1-6.86-2.13s-.38,3.45,0,3.75,5.66,2.72,6.64,2.3Z"/><path class="cls-1" d="M36.89,27.75,31.36,26.7S34.68,6.08,33.57.92"/><path class="cls-1" d="M4.22,15.84s5.28-1,6.81-2.5v3.93A1.75,1.75,0,0,1,9.59,19L4.22,20Z"/><path class="cls-1" d="M5.11,10.11c.38,0,5.72-1.85,5.92-2.2s0,2.2,0,2.2.24,1.09-1.26,1.73A27.52,27.52,0,0,1,5.11,13Z"/><path class="cls-1" d="M3.07.71S3,23.24,5.11,26.17l-5,1.37"/></g></g></svg>