<svg width="239" height="239" viewBox="0 0 239 239" fill="none" xmlns="http://www.w3.org/2000/svg">
<g clip-path="url(#clip0_234_788)">
<path d="M57.2178 42.0004L42.0068 57.2114L181.795 197L197.006 181.789L57.2178 42.0004Z" fill="#FF2D55"/>
<path d="M119.5 0C53.5022 0 0 53.5022 0 119.5C0 185.497 53.5022 238.999 119.5 238.999C185.497 238.999 238.999 185.497 238.999 119.5C238.999 53.5022 185.498 0 119.5 0ZM119.5 217.37C65.4475 217.37 21.6293 173.552 21.6293 119.5C21.6293 65.4475 65.4475 21.6293 119.5 21.6293C173.525 21.6948 217.304 65.4744 217.37 119.5C217.37 173.553 173.553 217.37 119.5 217.37Z" fill="#FF2D55"/>
</g>
<defs>
<clipPath id="clip0_234_788">
<rect width="239" height="239" fill="white"/>
</clipPath>
</defs>
</svg>
