<svg xmlns="http://www.w3.org/2000/svg" xmlns:xlink="http://www.w3.org/1999/xlink" viewBox="0 0 40.25 38.89"><defs><style>.cls-1,.cls-2,.cls-3,.cls-4,.cls-5,.cls-6{stroke:#231f20;stroke-miterlimit:10;}.cls-1,.cls-3,.cls-5{stroke-width:0.49px;}.cls-1{fill:url(#linear-gradient);}.cls-2{stroke-width:0.48px;fill:url(#linear-gradient-2);}.cls-3{fill:url(#linear-gradient-3);}.cls-4{stroke-width:0.5px;fill:url(#linear-gradient-4);}.cls-5{fill:url(#linear-gradient-5);}.cls-6{stroke-width:0.37px;fill:url(#linear-gradient-6);}</style><linearGradient id="linear-gradient" x1="11.29" y1="4.16" x2="28.44" y2="4.16" gradientUnits="userSpaceOnUse"><stop offset="0" stop-color="#fff"/><stop offset="1" stop-color="#b4b4b5"/></linearGradient><linearGradient id="linear-gradient-2" x1="0.24" y1="22.31" x2="40.01" y2="22.31" xlink:href="#linear-gradient"/><linearGradient id="linear-gradient-3" x1="17.7" y1="28.61" x2="17.7" y2="28.61" xlink:href="#linear-gradient"/><linearGradient id="linear-gradient-4" x1="20.76" y1="32.25" x2="20.76" y2="32.25" gradientTransform="translate(-12.12 38.97) rotate(-90)" xlink:href="#linear-gradient"/><linearGradient id="linear-gradient-5" x1="21.53" y1="28.61" x2="21.53" y2="28.61" xlink:href="#linear-gradient"/><linearGradient id="linear-gradient-6" x1="19.87" y1="12.4" x2="19.87" y2="12.4" xlink:href="#linear-gradient"/></defs><g id="Layer_2" data-name="Layer 2"><g id="Layer_1-2" data-name="Layer 1"><path class="cls-1" d="M22.73.6h0a9.9,9.9,0,0,0-5.68.13l-.44.14a6.75,6.75,0,0,0-4.25,4.22l-1.07,3H28.44l-1-2.91A7,7,0,0,0,22.73.6Z"/><path class="cls-2" d="M40,38.33H.24v-26s10.25-3.75,10.69-4a21.33,21.33,0,0,1,18-.08l11.1,4Z"/><line class="cls-3" x1="17.7" y1="18.33" x2="17.7" y2="38.89"/><line class="cls-4" x1="0.15" y1="18.2" x2="40.1" y2="18.2"/><line class="cls-5" x1="21.53" y1="18.33" x2="21.53" y2="38.89"/><line class="cls-6" x1="19.87" y1="6.71" x2="19.87" y2="18.08"/></g></g></svg>