<svg xmlns="http://www.w3.org/2000/svg" xmlns:xlink="http://www.w3.org/1999/xlink" viewBox="0 0 40.25 38.57"><defs><style>.cls-1,.cls-2,.cls-3{stroke:#231f20;stroke-miterlimit:10;}.cls-1{stroke-width:0.49px;fill:url(#linear-gradient);}.cls-2,.cls-3{stroke-width:0.48px;}.cls-2{fill:url(#linear-gradient-2);}.cls-3{fill:none;}</style><linearGradient id="linear-gradient" x1="11.55" y1="4.16" x2="28.7" y2="4.16" gradientUnits="userSpaceOnUse"><stop offset="0" stop-color="#fff"/><stop offset="1" stop-color="#b4b4b5"/></linearGradient><linearGradient id="linear-gradient-2" x1="0.24" y1="22.31" x2="40.01" y2="22.31" xlink:href="#linear-gradient"/></defs><g id="Layer_2" data-name="Layer 2"><g id="Layer_1-2" data-name="Layer 1"><path class="cls-1" d="M23,.6h0A9.9,9.9,0,0,0,17.3.73l-.44.14a6.8,6.8,0,0,0-4.25,4.22l-1.06,3H28.7l-1-2.91A7,7,0,0,0,23,.6Z"/><path class="cls-2" d="M40,38.33H.24v-26s10.25-3.75,10.69-4a21.33,21.33,0,0,1,18-.08l11.1,4Z"/><line class="cls-3" x1="0.52" y1="18.33" x2="39.71" y2="18.33"/><line class="cls-3" x1="20.11" y1="6.46" x2="20.11" y2="18.33"/></g></g></svg>