<svg xmlns="http://www.w3.org/2000/svg" xmlns:xlink="http://www.w3.org/1999/xlink" viewBox="0 0 40.36 38.57"><defs><style>.cls-1,.cls-2,.cls-3,.cls-4{stroke:#231f20;stroke-miterlimit:10;}.cls-1{stroke-width:0.49px;fill:url(#linear-gradient);}.cls-2{stroke-width:0.48px;fill:url(#linear-gradient-2);}.cls-3{stroke-width:0.5px;fill:url(#linear-gradient-3);}.cls-4{stroke-width:0.37px;fill:url(#linear-gradient-4);}.cls-5{fill:url(#linear-gradient-5);}.cls-6{fill:#231f20;}.cls-7{fill:url(#linear-gradient-6);}</style><linearGradient id="linear-gradient" x1="11.29" y1="4.16" x2="28.44" y2="4.16" gradientUnits="userSpaceOnUse"><stop offset="0" stop-color="#fff"/><stop offset="1" stop-color="#b4b4b5"/></linearGradient><linearGradient id="linear-gradient-2" x1="0.24" y1="22.31" x2="40.01" y2="22.31" xlink:href="#linear-gradient"/><linearGradient id="linear-gradient-3" x1="-22.39" y1="76.42" x2="-22.39" y2="76.42" gradientTransform="translate(-56.04 -4.95) rotate(-90)" xlink:href="#linear-gradient"/><linearGradient id="linear-gradient-4" x1="20.12" y1="11.63" x2="20.12" y2="11.63" xlink:href="#linear-gradient"/><linearGradient id="linear-gradient-5" x1="7.06" y1="21.37" x2="7.06" y2="21.37" xlink:href="#linear-gradient"/><linearGradient id="linear-gradient-6" x1="33.06" y1="21.37" x2="33.06" y2="21.37" xlink:href="#linear-gradient"/></defs><g id="Layer_2" data-name="Layer 2"><g id="Layer_1-2" data-name="Layer 1"><path class="cls-1" d="M22.73.6h0a9.9,9.9,0,0,0-5.68.13l-.44.14a6.75,6.75,0,0,0-4.25,4.22l-1.07,3H28.44l-1-2.91A7,7,0,0,0,22.73.6Z"/><path class="cls-2" d="M40,38.33H.24v-26s10.25-3.75,10.69-4a21.33,21.33,0,0,1,18-.08l11.1,4Z"/><line class="cls-3" x1="0.4" y1="17.44" x2="40.36" y2="17.44"/><line class="cls-4" x1="20.12" y1="5.95" x2="20.12" y2="17.31"/><line class="cls-5" x1="7.06" y1="17.44" x2="7.06" y2="25.31"/><polygon class="cls-6" points="7.31 17.44 7.06 25.31 6.81 17.44 7.31 17.44 7.31 17.44"/><line class="cls-7" x1="33.06" y1="17.44" x2="33.06" y2="25.31"/><polygon class="cls-6" points="33.31 17.44 33.06 25.31 32.81 17.44 33.31 17.44 33.31 17.44"/></g></g></svg>