<svg xmlns="http://www.w3.org/2000/svg" viewBox="0 0 33.64 33.48"><defs><style>.cls-1{fill:#fff;}.cls-2{fill:none;stroke:#000;stroke-miterlimit:10;stroke-width:0.5px;}</style></defs><g id="Layer_2" data-name="Layer 2"><g id="Layer_1-2" data-name="Layer 1"><path d="M32.47,33.48H.65C0,31.8-.26,8.19.33,2.87c1.19-.26,2.47-.61,3.77-.82a100.2,100.2,0,0,1,19-1.7c1.5,0,3-.24,4.51-.32,2.18-.12,2.4,0,2.93,2.2.32,1.31.45,2.67.67,4a47.55,47.55,0,0,0,.93,5.63c2,6.76,1.74,13.56.69,20.41A10.08,10.08,0,0,1,32.47,33.48ZM25.39,6.22C17.05,5.55,9.13,8.06,1,9.87v23H26.9C27.88,29.83,26.82,10.79,25.39,6.22ZM29.71,1A101.8,101.8,0,0,0,1,3.34c-.07,2-.41,3.78.29,5.7,1.11-.21,2.12-.37,3.12-.61,2.09-.49,4.16-1.12,6.27-1.52,5.26-1,10.52-2,15.92-1.22,1.31.18,2.61.47,4.34.8ZM32,32.9c.88-3.13.82-6.24,1-9.32.35-5.27-1.23-10.25-2.34-15.29a1.59,1.59,0,0,0-.81-1.06,31.19,31.19,0,0,0-3.38-.86c.26,9.07,2.16,17.68,1.36,26.53Z"/><path class="cls-1" d="M25.39,6.22c1.43,4.57,2.49,23.61,1.51,26.69H1v-23C9.13,8.06,17.05,5.55,25.39,6.22Z"/><path class="cls-1" d="M29.71,1l1.18,5.5c-1.73-.33-3-.62-4.34-.8-5.4-.77-10.66.24-15.92,1.22-2.11.4-4.18,1-6.27,1.52-1,.24-2,.4-3.12.61C.54,7.12.88,5.33,1,3.34A101.8,101.8,0,0,1,29.71,1Z"/><path class="cls-1" d="M32,32.9H27.89c.8-8.85-1.1-17.46-1.36-26.53a31.19,31.19,0,0,1,3.38.86,1.59,1.59,0,0,1,.81,1.06c1.11,5,2.69,10,2.34,15.29C32.85,26.66,32.91,29.77,32,32.9Z"/><path class="cls-2" d="M13.65,6.66l1.47,6.19s11.29,1.66,11.81,2.23"/><path class="cls-2" d="M12.25,7.08l2,6.85s12.19,2.23,12.71,2.81"/></g></g></svg>