<svg xmlns="http://www.w3.org/2000/svg" viewBox="0 0 38.51 46.78"><defs><style>.cls-1,.cls-2,.cls-3{fill:#fff;stroke:#231f20;stroke-miterlimit:10;}.cls-1{stroke-width:0.5px;}.cls-2{stroke-linecap:round;stroke-width:0.54px;}.cls-3{stroke-width:0.54px;}</style></defs><g id="Layer_2" data-name="Layer 2"><g id="Layer_1-2" data-name="Layer 1"><path class="cls-1" d="M36.54,10.6,17.92,3.77S4.51,16.57,1.07,26.65L32,46.57"/><path class="cls-1" d="M38.41,8.52,19.75.29S3.75,14.15.3,24.24L37.39,46.57"/><line class="cls-2" x1="18.06" y1="33.73" x2="22.54" y2="27.69"/><circle class="cls-3" cx="20.42" cy="30.65" r="2.36"/><line class="cls-3" x1="20.42" y1="29.59" x2="20.42" y2="31.72"/><line class="cls-3" x1="19.36" y1="30.65" x2="21.48" y2="30.65"/><line class="cls-2" x1="14.34" y1="31.62" x2="18.81" y2="25.58"/><circle class="cls-3" cx="16.7" cy="28.55" r="2.36"/><line class="cls-3" x1="16.7" y1="27.48" x2="16.7" y2="29.61"/><line class="cls-3" x1="15.63" y1="28.55" x2="17.76" y2="28.55"/><line class="cls-2" x1="10.65" y1="29.47" x2="15.13" y2="23.43"/><circle class="cls-3" cx="13.02" cy="26.4" r="2.36"/><line class="cls-3" x1="13.02" y1="25.33" x2="13.02" y2="27.46"/><line class="cls-3" x1="11.95" y1="26.4" x2="14.08" y2="26.4"/></g></g></svg>