<svg xmlns="http://www.w3.org/2000/svg" viewBox="0 0 39.96 46.67"><defs><style>.cls-1,.cls-2,.cls-3{fill:#fff;stroke:#231f20;stroke-miterlimit:10;}.cls-1{stroke-width:0.5px;}.cls-2{stroke-linecap:round;stroke-width:0.54px;}.cls-3{stroke-width:0.54px;}</style></defs><g id="Layer_2" data-name="Layer 2"><g id="Layer_1-2" data-name="Layer 1"><path class="cls-1" d="M38.75,10.41,20.22,2S3.81,16.17.37,26.25L31.61,46.46"/><path class="cls-1" d="M39.86,8.92,20.1.29S3.75,14.16.3,24.25l37.07,22"/><line class="cls-2" x1="18.4" y1="34.58" x2="22.88" y2="28.54"/><circle class="cls-3" cx="20.76" cy="31.51" r="2.36"/><line class="cls-3" x1="20.76" y1="30.44" x2="20.76" y2="32.57"/><line class="cls-3" x1="19.7" y1="31.51" x2="21.83" y2="31.51"/><line class="cls-2" x1="14.61" y1="32.17" x2="19.09" y2="26.13"/><circle class="cls-3" cx="16.97" cy="29.09" r="2.36"/><line class="cls-3" x1="16.97" y1="28.03" x2="16.97" y2="30.16"/><line class="cls-3" x1="15.91" y1="29.09" x2="18.04" y2="29.09"/><line class="cls-2" x1="10.74" y1="30.16" x2="15.22" y2="24.11"/><circle class="cls-3" cx="13.1" cy="27.08" r="2.36"/><line class="cls-3" x1="13.1" y1="26.02" x2="13.1" y2="28.15"/><line class="cls-3" x1="12.04" y1="27.08" x2="14.17" y2="27.08"/><line class="cls-2" x1="7.04" y1="27.74" x2="11.51" y2="21.7"/><circle class="cls-3" cx="9.4" cy="24.67" r="2.36"/><line class="cls-3" x1="9.4" y1="23.6" x2="9.4" y2="25.73"/><line class="cls-3" x1="8.34" y1="24.67" x2="10.46" y2="24.67"/></g></g></svg>