<svg xmlns="http://www.w3.org/2000/svg" viewBox="0 0 38.76 45.77"><defs><style>.cls-1,.cls-2{fill:#fff;stroke:#231f20;stroke-miterlimit:10;}.cls-1{stroke-width:0.5px;}.cls-2{stroke-width:0.54px;}</style></defs><g id="Layer_2" data-name="Layer 2"><g id="Layer_1-2" data-name="Layer 1"><path class="cls-1" d="M36.81,9.18,18.18,2.35S4.78,15.14,1.33,25.23L37.84,45.55"/><path class="cls-1" d="M38.68,8,16.9.29S3.75,13.09.31,23.17l38,20"/><circle class="cls-2" cx="10.95" cy="24.37" r="2.36"/><line class="cls-2" x1="10.95" y1="23.3" x2="10.95" y2="25.43"/><line class="cls-2" x1="9.89" y1="24.37" x2="12.01" y2="24.37"/><circle class="cls-2" cx="15.83" cy="26.98" r="2.36"/><line class="cls-2" x1="15.83" y1="25.92" x2="15.83" y2="28.05"/><line class="cls-2" x1="14.77" y1="26.98" x2="16.9" y2="26.98"/><circle class="cls-2" cx="20.69" cy="29.59" r="2.36"/><line class="cls-2" x1="20.69" y1="28.52" x2="20.69" y2="30.65"/><line class="cls-2" x1="19.62" y1="29.59" x2="21.75" y2="29.59"/><circle class="cls-2" cx="25.66" cy="32.3" r="2.36"/><line class="cls-2" x1="25.66" y1="31.23" x2="25.66" y2="33.36"/><line class="cls-2" x1="24.6" y1="32.3" x2="26.73" y2="32.3"/></g></g></svg>