<svg xmlns="http://www.w3.org/2000/svg" viewBox="0 0 39.96 46.67"><defs><style>.cls-1,.cls-2,.cls-3{fill:#fff;stroke:#231f20;stroke-miterlimit:10;}.cls-1{stroke-width:0.5px;}.cls-2{stroke-linecap:round;stroke-width:0.54px;}.cls-3{stroke-width:0.54px;}</style></defs><g id="Layer_2" data-name="Layer 2"><g id="Layer_1-2" data-name="Layer 1"><path class="cls-1" d="M38.75,10.41,20.22,2S3.81,16.17.37,26.25L31.61,46.46"/><path class="cls-1" d="M39.86,8.92,20.1.29S3.75,14.16.3,24.25l37.07,22"/><line class="cls-2" x1="7.91" y1="28.68" x2="12.39" y2="22.64"/><circle class="cls-3" cx="10.27" cy="25.61" r="2.36"/><line class="cls-3" x1="10.27" y1="24.54" x2="10.27" y2="26.67"/><line class="cls-3" x1="9.21" y1="25.61" x2="11.34" y2="25.61"/><line class="cls-2" x1="11.49" y1="30.73" x2="15.96" y2="24.68"/><circle class="cls-3" cx="13.85" cy="27.65" r="2.36"/><line class="cls-3" x1="13.85" y1="26.59" x2="13.85" y2="28.71"/><line class="cls-3" x1="12.78" y1="27.65" x2="14.91" y2="27.65"/><line class="cls-2" x1="15.08" y1="33.03" x2="19.56" y2="26.99"/><circle class="cls-3" cx="17.44" cy="29.96" r="2.36"/><line class="cls-3" x1="17.44" y1="28.9" x2="17.44" y2="31.02"/><line class="cls-3" x1="16.38" y1="29.96" x2="18.51" y2="29.96"/><line class="cls-2" x1="18.78" y1="35.16" x2="23.26" y2="29.12"/><circle class="cls-3" cx="21.15" cy="32.09" r="2.36"/><line class="cls-3" x1="21.15" y1="31.02" x2="21.15" y2="33.15"/><line class="cls-3" x1="20.08" y1="32.09" x2="22.21" y2="32.09"/><line class="cls-2" x1="22.36" y1="37.33" x2="26.83" y2="31.29"/><circle class="cls-3" cx="24.72" cy="34.26" r="2.36"/><line class="cls-3" x1="24.72" y1="33.19" x2="24.72" y2="35.32"/><line class="cls-3" x1="23.66" y1="34.26" x2="25.78" y2="34.26"/></g></g></svg>