<svg xmlns="http://www.w3.org/2000/svg" viewBox="0 0 38.09 46.11"><defs><style>.cls-1,.cls-2{fill:#fff;stroke:#231f20;stroke-miterlimit:10;}.cls-1{stroke-width:0.5px;}.cls-2{stroke-width:0.54px;}</style></defs><g id="Layer_2" data-name="Layer 2"><g id="Layer_1-2" data-name="Layer 1"><path class="cls-1" d="M36.8,8.23,19.13,2.36S4.92,15.22,1.47,25.3L38,45.9"/><path class="cls-1" d="M38,7.72,17,.29S3.75,13.47.31,23.55L38,43.34"/><circle class="cls-2" cx="10.61" cy="24.36" r="2.36"/><line class="cls-2" x1="10.61" y1="23.3" x2="10.61" y2="25.42"/><line class="cls-2" x1="9.54" y1="24.36" x2="11.67" y2="24.36"/><circle class="cls-2" cx="30.03" cy="34.41" r="2.36"/><line class="cls-2" x1="30.03" y1="33.34" x2="30.03" y2="35.47"/><line class="cls-2" x1="28.96" y1="34.41" x2="31.09" y2="34.41"/><circle class="cls-2" cx="25.08" cy="31.79" r="2.36"/><line class="cls-2" x1="25.08" y1="30.72" x2="25.08" y2="32.85"/><line class="cls-2" x1="24.02" y1="31.79" x2="26.15" y2="31.79"/><circle class="cls-2" cx="20.2" cy="29.43" r="2.36"/><line class="cls-2" x1="20.2" y1="28.36" x2="20.2" y2="30.49"/><line class="cls-2" x1="19.13" y1="29.43" x2="21.26" y2="29.43"/><circle class="cls-2" cx="15.4" cy="26.95" r="2.36"/><line class="cls-2" x1="15.4" y1="25.88" x2="15.4" y2="28.01"/><line class="cls-2" x1="14.34" y1="26.95" x2="16.47" y2="26.95"/></g></g></svg>